# xmcd
#
# Track frame offsets: 
#        150
#        27902
#        49051
#        83326
#        115127
#        138079
#        162680
#        182031
#        211357
#        234308
#        258309
#        277660
#        306237
#
# Disc length: 4649 seconds
#
# Revision: 1
# Processed by: cddbd v1.5.2PL0 Copyright (c) Steve Scherf et al.
# Submitted via: ExactAudioCopy v1.0b3
#
DISCID=a512270d
DTITLE=Various Artist - Blues Paradise  vol.26
DYEAR=2002
DGENRE=Blues
TTITLE0=Toscho - Forgotten Mines
TTITLE1=Bloodline - Bad Girls
TTITLE2=Greg Serrato - Cheatin' Hand
TTITLE3=Jay Hooks - Last Time I Left Memphis
TTITLE4=Aynsley Lister - Need Her So Bad
TTITLE5=Red Rooster Club - Ain't No Love
TTITLE6=Chris Michie - Don Wanna Go
TTITLE7=Tino Gonzales - Happy Man's Blues
TTITLE8=Neal Black and The Healers - As The Years Go Passing By
TTITLE9=Toler Brothers - Goin Down Slowly
TTITLE10=David Gogo - Sad And Beautiful
TTITLE11=Eddy Shaver - Baptism Of Fire
TTITLE12=Bloodline - Since You're Gone
EXTD=YEAR: 2003
EXTT0=
EXTT1=
EXTT2=
EXTT3=
EXTT4=
EXTT5=
EXTT6=
EXTT7=
EXTT8=
EXTT9=
EXTT10=
EXTT11=
EXTT12=
PLAYORDER=
